<?xml version="1.0" encoding="utf-8"?>
<!-- Generator: Adobe Illustrator 28.1.0, SVG Export Plug-In . SVG Version: 6.00 Build 0)  -->
<svg version="1.1" id="Layer_1" xmlns="http://www.w3.org/2000/svg" xmlns:xlink="http://www.w3.org/1999/xlink" x="0px" y="0px"
	 viewBox="0 0 1080 1920" style="enable-background:new 0 0 1080 1920;" xml:space="preserve">
<style type="text/css">
	.st0{fill:#F47920;}
	.st1{font-family:'Bauhaus93';}
	.st2{font-size:83.563px;}
</style>
<g>
	<path d="M670.12,588.93C495.02,550,340,682.19,340,850.57h179c0-50.84,42.38-91.77,93.72-89.4c45.85,2.1,83.07,39.32,85.17,85.17
		c2.36,51.36-38.57,93.72-89.4,93.72l0,0v179l0,0c168.39,0,300.57-155.01,261.64-330.12C847.99,689.34,769.75,611.08,670.12,588.93z
		"/>
	<text transform="matrix(1 0 0 1 395.1523 918.0264)" class="st0 st1 st2">The</text>
	<text transform="matrix(1 0 0 1 310.0547 1018.2979)" class="st0 st1 st2">Electric </text>
	<text transform="matrix(1 0 0 1 367.0786 1118.583)" class="st0 st1 st2">Fetus</text>
	<path class="st0" d="M608.49,940.09L608.49,940.09c49.43,0,89.5-40.07,89.5-89.5s-40.07-89.5-89.5-89.5s-89.5,40.07-89.5,89.5h89.5
		V940.09z"/>
</g>
</svg>
