<?xml version="1.0" standalone="no"?>
<!DOCTYPE svg PUBLIC "-//W3C//DTD SVG 20010904//EN"
 "http://www.w3.org/TR/2001/REC-SVG-20010904/DTD/svg10.dtd">
<svg version="1.0" xmlns="http://www.w3.org/2000/svg"
 width="567.000000pt" height="567.000000pt" viewBox="0 0 567.000000 567.000000"
 preserveAspectRatio="xMidYMid meet">
<metadata>
Created by potrace 1.14, written by Peter Selinger 2001-2017
</metadata>
<g transform="translate(0.000000,567.000000) scale(0.100000,-0.100000)"
fill="#000000" stroke="none">
<path d="M2777 5614 c-2 -2 -35 -7 -72 -9 -38 -3 -80 -7 -94 -10 -14 -2 -43
-7 -65 -10 -21 -4 -48 -9 -60 -11 -11 -2 -32 -6 -46 -9 -14 -3 -61 -14 -105
-25 -44 -12 -98 -25 -119 -31 -22 -5 -44 -13 -50 -17 -6 -3 -19 -8 -28 -9 -29
-5 -197 -73 -298 -121 -52 -25 -97 -46 -100 -46 -25 -6 -351 -213 -370 -236
-3 -3 -14 -13 -26 -21 -149 -103 -406 -367 -537 -554 -31 -44 -60 -84 -65 -90
-4 -5 -17 -26 -28 -45 -10 -19 -22 -37 -25 -40 -3 -3 -21 -34 -40 -70 -19 -36
-37 -66 -41 -68 -5 -2 -8 -8 -8 -12 0 -8 -66 -153 -95 -210 -14 -27 -102 -283
-110 -319 -3 -11 -7 -30 -10 -41 -3 -11 -7 -28 -9 -37 -2 -10 -11 -49 -20 -87
-9 -38 -14 -71 -12 -74 3 -2 1 -12 -4 -22 -5 -9 -11 -44 -14 -76 -3 -32 -6
-59 -6 -59 -5 0 -12 -107 -13 -204 l-2 -115 1340 0 1340 -1 0 -605 0 -605 -65
-1 c-80 -2 -104 -7 -145 -35 -105 -72 -119 -280 -25 -378 38 -39 96 -59 169
-59 l66 1 1 -489 c1 -269 2 -494 3 -500 1 -11 117 -11 231 1 36 3 79 8 95 9
17 2 49 6 73 10 23 4 52 9 65 11 229 32 600 163 822 289 22 12 56 31 75 42 47
26 230 148 255 171 12 10 41 34 65 53 161 124 418 399 519 554 14 23 28 43 32
46 3 3 18 28 34 55 16 28 34 57 41 65 19 24 128 240 164 326 51 123 112 304
125 373 2 9 4 17 5 19 4 4 5 8 27 117 18 92 22 117 28 170 4 33 10 69 12 80 9
35 11 467 3 530 -5 33 -11 80 -14 105 -11 85 -28 191 -41 245 -28 126 -80 304
-104 360 -5 11 -26 61 -46 110 -129 310 -316 587 -564 836 -107 107 -225 207
-316 270 -27 19 -52 37 -55 40 -11 14 -200 127 -285 171 -230 118 -527 217
-755 253 -25 4 -54 9 -65 11 -11 2 -42 7 -70 10 -27 3 -63 8 -80 11 -37 6
-482 13 -488 7z m202 -3960 c3 -3 6 -78 6 -166 0 -152 -1 -161 -20 -168 -31
-12 -107 -2 -135 18 -39 28 -66 94 -64 155 4 90 40 148 104 164 34 9 99 7 109
-3z"/>
<path d="M1442 2881 c-9 -26 -8 -594 2 -609 9 -15 53 -16 62 -1 3 6 7 80 8
164 l2 154 36 35 c21 20 45 37 55 37 10 1 25 2 33 3 30 3 69 -16 86 -42 15
-23 18 -54 20 -187 1 -88 2 -164 3 -168 0 -4 17 -7 36 -5 l35 2 0 161 c0 181
-8 224 -52 265 -55 53 -162 51 -222 -5 -15 -14 -28 -25 -30 -25 -2 0 -4 44 -4
98 0 151 2 142 -32 142 -21 0 -33 -6 -38 -19z"/>
<path d="M905 2869 c-3 -3 -16 -4 -30 -1 -23 4 -25 1 -25 -32 l0 -36 108 0
107 0 0 -257 c-1 -142 0 -263 2 -269 2 -6 21 -11 41 -10 l37 1 2 263 c1 145 4
266 7 269 3 3 50 5 106 4 55 -1 100 1 101 6 5 43 5 63 -3 64 -30 4 -55 2 -66
-5 -6 -4 -12 -3 -12 1 0 5 -15 7 -32 5 -18 -2 -40 -3 -48 -3 -8 0 -61 2 -118
3 -56 2 -102 -1 -102 -5 0 -5 -5 -5 -12 -1 -15 10 -58 12 -63 3z"/>
<path d="M2064 2710 c-84 -37 -129 -126 -122 -243 6 -89 38 -144 107 -185 41
-24 55 -27 131 -26 47 1 103 8 125 15 35 12 39 18 40 47 1 26 -3 32 -15 28
-97 -31 -155 -37 -216 -22 -44 11 -94 80 -94 128 l0 23 166 -1 c192 0 191 -1
170 87 -26 115 -79 162 -185 165 -45 1 -79 -4 -107 -16z m166 -60 c23 -12 51
-62 55 -96 l2 -23 -133 1 c-150 1 -155 4 -111 69 40 61 124 83 187 49z"/>
<path d="M609 1887 c0 -17 -1 -599 0 -614 1 -14 70 -19 72 -5 0 4 1 144 2 310
1 193 -2 306 -8 310 -19 12 -65 11 -66 -1z"/>
<path d="M2494 1891 c-8 -5 -10 -40 -6 -78 1 -8 16 -13 37 -13 31 0 35 3 36
28 2 31 -1 55 -7 61 -7 7 -51 9 -60 2z"/>
<path d="M120 1870 c0 -5 -8 -6 -18 -3 -18 4 -19 -9 -19 -301 l0 -306 196 2
196 3 0 30 0 30 -155 5 -155 5 0 110 0 110 145 -1 145 -2 0 34 0 34 -145 0
-145 0 0 90 -1 90 152 0 151 0 0 34 0 34 -54 4 c-29 2 -53 0 -53 -3 0 -6 -92
-1 -98 6 -3 2 -14 0 -25 -6 -15 -8 -18 -8 -12 1 6 9 3 10 -10 3 -9 -6 -34 -7
-56 -3 -21 4 -39 4 -39 0z"/>
<path d="M1813 1833 c-3 -7 -3 -35 -1 -63 3 -51 1 -53 -39 -49 -10 1 -21 -34
-16 -48 3 -7 16 -13 29 -13 19 0 24 -5 24 -27 1 -16 2 -90 3 -166 l2 -137 32
-31 c28 -29 37 -32 112 -36 63 -4 81 -2 82 9 0 7 2 21 4 31 2 9 0 17 -3 18 -4
0 -33 2 -66 3 -89 4 -87 -1 -87 251 0 36 0 70 0 75 1 6 33 10 75 10 76 0 88 6
79 41 -4 13 -19 16 -74 16 -38 0 -72 3 -76 6 -3 4 -5 33 -4 66 l2 59 -37 -1
c-20 -1 -38 -7 -41 -14z"/>
<path d="M988 1725 c-4 -4 -40 -12 -61 -14 -23 -2 -95 -91 -106 -132 -61 -223
84 -368 319 -318 60 13 79 29 73 63 -3 14 -7 26 -8 26 -1 0 -20 -7 -41 -16
-91 -38 -211 -18 -250 41 -22 34 -35 95 -20 96 6 0 84 1 174 1 l162 0 0 37 c0
85 -42 166 -103 197 -29 15 -129 29 -139 19z m117 -83 c43 -31 62 -107 29
-114 -9 -2 -68 -2 -130 0 -128 4 -130 5 -93 72 36 63 136 85 194 42z"/>
<path d="M1488 1720 c-16 -4 -28 -6 -28 -4 0 3 -20 -9 -44 -25 -35 -24 -78
-83 -81 -111 0 -3 -3 -9 -7 -15 -3 -5 -5 -44 -3 -87 3 -93 30 -148 93 -193 41
-28 50 -30 131 -30 100 0 134 14 135 58 2 31 1 31 -50 14 -81 -28 -170 -7
-203 47 -40 64 -42 143 -7 218 31 64 101 86 194 62 29 -8 57 -12 62 -9 10 6 5
44 -8 57 -19 19 -142 32 -184 18z"/>
<path d="M2304 1719 c-17 -5 -43 -20 -58 -34 -34 -31 -36 -31 -33 2 2 24 -2
27 -35 31 l-37 3 -3 -158 c-2 -87 -2 -191 0 -231 l3 -73 36 3 37 3 1 151 c1
136 3 154 23 186 27 43 65 61 123 57 42 -3 44 -2 46 26 3 44 -30 55 -103 34z"/>
<path d="M2495 1714 c-8 -3 -12 -317 -6 -436 1 -14 10 -18 39 -18 l37 0 -2
217 c-1 120 -2 223 -2 229 -1 11 -45 16 -66 8z"/>
<path d="M661 861 c-5 -3 -9 -140 -10 -304 l-1 -298 42 3 43 3 0 135 c0 74 4
140 8 146 4 8 18 9 39 5 18 -4 45 -4 61 0 15 4 27 4 27 1 0 -9 90 -5 98 3 4 4
7 20 8 36 l2 30 -87 -2 c-47 0 -102 0 -122 0 l-35 1 0 88 1 87 130 0 c121 0
130 1 136 20 14 50 9 51 -167 51 -90 0 -168 -2 -173 -5z"/>
<path d="M1602 836 c-4 -6 -7 -36 -6 -68 1 -54 0 -56 -22 -52 -19 3 -25 -1
-30 -22 -7 -29 7 -44 35 -37 15 4 17 -10 18 -150 1 -108 5 -164 14 -184 20
-41 72 -63 152 -63 l67 0 0 30 c0 30 0 30 -58 30 -96 0 -99 6 -98 185 l1 150
55 2 c30 1 65 2 78 2 19 1 23 6 20 29 -3 27 -4 27 -78 27 l-75 0 0 63 c0 34
-4 63 -10 63 -44 6 -56 5 -63 -5z"/>
<path d="M1235 723 c-72 -15 -124 -53 -158 -118 -31 -59 -30 -173 2 -238 37
-77 122 -122 224 -120 37 1 147 24 148 32 1 3 3 21 5 39 2 28 0 32 -14 27 -88
-37 -197 -42 -244 -11 -27 17 -59 74 -65 112 -3 21 -1 22 162 23 91 0 170 3
174 6 13 7 4 96 -13 136 -18 42 -47 74 -85 94 -31 15 -102 25 -136 18z m120
-87 c24 -16 50 -78 42 -99 -3 -9 -41 -12 -133 -11 l-129 1 3 24 c15 97 129
142 217 85z"/>
<path d="M2538 719 c-73 -19 -108 -60 -108 -125 0 -61 32 -103 93 -119 4 -2 8
-3 10 -4 2 -2 14 -5 62 -15 6 -1 15 -4 20 -7 6 -4 23 -9 38 -13 56 -13 56 -92
-1 -115 -35 -15 -137 -7 -187 14 -19 7 -35 13 -36 12 -6 -11 -5 -69 2 -73 11
-7 39 -12 110 -22 63 -9 139 4 180 32 52 33 69 130 30 174 -21 25 -97 61 -128
62 -32 0 -113 37 -119 55 -10 24 3 59 27 73 34 22 167 15 196 -10 7 -6 13 -9
14 -7 0 2 3 19 5 37 5 28 2 33 -23 43 -34 13 -149 18 -185 8z"/>
<path d="M1924 708 c-4 -6 -6 -69 -6 -142 1 -237 17 -282 114 -311 56 -16 132
1 165 39 28 33 33 33 30 -1 -2 -26 1 -28 37 -28 l38 0 1 225 0 224 -36 1 c-21
1 -37 -3 -38 -9 0 -6 -1 -76 -3 -156 -1 -99 -6 -153 -16 -170 -27 -49 -62 -68
-120 -65 -33 2 -50 9 -67 29 -26 31 -25 23 -28 211 -2 77 -3 145 -4 150 -1 13
-59 16 -67 3z"/>
</g>
</svg>
